# AST/ASF file generated using VICON BodyLanguage
# -----------------------------------------------
:version 1.10
:name VICON
:units
  mass 1.0
  length 0.45
  angle deg
:documentation
   .ast/.asf automatically generated from VICON data using
   VICON BodyBuilder and BodyLanguage model FoxedUp or BRILLIANT.MOD
:root
   order TX TY TZ RX RY RZ
   axis XYZ
   position 0 0 0  
   orientation 0 0 0 
:bonedata
  begin
     id 1 
     name lhipjoint
     direction 0.567725 -0.736092 0.368589 
     length 2.42353 
     axis 0 0 0  XYZ
  end
  begin
     id 2 
     name lfemur
     direction 0.34202 -0.939693 0  
     length 7.24894  
     axis 0 0 20  XYZ
    dof rx ry rz
    limits (-160.0 20.0)
           (-70.0 70.0)
           (-60.0 70.0)
  end
  begin
     id 3 
     name ltibia
     direction 0.34202 -0.939693 0   
     length 7.6997   
     axis 0 0 20   XYZ
    dof rx
    limits (-10.0 170.0)
  end
  begin
     id 4 
     name lfoot
     direction 0.100767 -0.276854 0.955614   
     length 2.37556   
     axis -90 7.62852e-016 20   XYZ
    dof rx rz
    limits (-45.0 90.0)
           (-70.0 20.0)
  end
  begin
     id 5 
     name ltoes
     direction 1.53592e-011 -4.21894e-011 1   
     length 1.18363   
     axis -90 7.62852e-016 20   XYZ
    dof rx
    limits (-90.0 20.0)
  end
  begin
     id 6 
     name rhipjoint
     direction -0.556459 -0.742938 0.372017   
     length 2.4012  
     axis 0 0 0  XYZ 
  end
  begin
     id 7 
     name rfemur
     direction -0.34202 -0.939693 0   
     length 7.5119   
     axis 0 0 -20   XYZ
    dof rx ry rz
    limits (-160.0 20.0)
           (-70.0 70.0)
           (-70.0 60.0)
  end
  begin
     id 8 
     name rtibia
     direction -0.34202 -0.939693 0   
     length 7.50155   
     axis 0 0 -20   XYZ
    dof rx
    limits (-10.0 170.0)
 end
 begin
     id 9 
     name rfoot
     direction -0.118427 -0.325376 0.938139   
     length 2.32487  
     axis -90 -7.62852e-016 -20   XYZ
    dof rx rz
    limits (-45.0 90.0)
           (-20.0 70.0)
  end
  begin
     id 10 
     name rtoes
     direction -1.53525e-011 -4.21868e-011 1   
     length 1.15233   
     axis -90 -7.62852e-016 -20   XYZ
    dof rx
    limits (-90.0 20.0)
  end
  begin
     id 11 
     name lowerback
     direction 0.0287568 0.999577 -0.00434502   
     length 2.15243   
     axis 0 0 0   XYZ
    dof rx ry rz
    limits (-20.0 45.0)
           (-30.0 30.0)
           (-30.0 30.0)
  end
  begin
     id 12 
     name upperback
     direction 0.0294009 0.99956 0.00404628   
     length 2.15427   
     axis 0 0 0   XYZ
    dof rx ry rz
    limits (-20.0 45.0)
           (-30.0 30.0)
           (-30.0 30.0)
  end
  begin
     id 13 
     name thorax
     direction 0.0151014 0.999868 0.0059419   
     length 2.14898   
     axis 0 0 0   XYZ
    dof rx ry rz
    limits (-20.0 45.0)
           (-30.0 30.0)
           (-30.0 30.0)
  end
  begin
     id 14 
     name lowerneck
     direction -0.0249197 0.989906 0.139515   
     length 1.6861   
     axis 0 0 0   XYZ
    dof rx ry rz
    limits (-20.0 45.0)
           (-30.0 30.0)
           (-30.0 30.0)
  end
  begin
     id 15 
     name upperneck
     direction 0.0438463 0.988795 -0.142693   
     length 1.71276   
     axis 0 0 0   XYZ
    dof rx ry rz
    limits (-20.0 45.0)
           (-30.0 30.0)
           (-30.0 30.0)
  end
  begin
     id 16
     name head
     direction 0.0148499 0.997845 -0.0639186  
     length 1.7209  
     axis 0 0 0   XYZ
    dof rx ry rz
    limits (-20.0 45.0)
           (-30.0 30.0)
           (-30.0 30.0)
  end
  begin
     id 17 
     name lclavicle
     direction 0.940298 0.323464 -0.105876  
     length 3.9048  
     axis 0 0 0   XYZ
    dof ry rz
    limits (-20.0 10.0)
           (0.0 20.0)
  end
  begin
     id 18 
     name lhumerus
     direction 1 -4.48954e-011 -4.9675e-028   
     length 4.6851   
     axis 180 -30 -90   XYZ
    dof rx ry rz
    limits (-60.0 90.0)
           (-90.0 90.0)
           (-90.0 90.0)
  end
  begin
     id 19
     name lradius
     direction 1 -4.48992e-011 -1.03359e-026   
     length 3.39626   
     axis 180 -30 -90   XYZ
    dof rx
    limits (-10.0 170.0)
  end
  begin
     id 20
     name lwrist
     direction 1 -4.48906e-011 -1.67336e-026   
     length 1.69813   
     axis 9.90442e-015 90 90   XYZ
    dof ry
    limits (-180.0 0.0)
 end
  begin
     id 21 
     name lhand
     direction 1 -4.49006e-011 -3.34673e-026   
     length 0.486078   
     axis 2.1355e-014 90 90   XYZ
    dof rx rz
    limits (-90.0 90.0)
           (-45.0 45.0)
  end
  begin
     id 22 
     name lfingers
     direction 1 -4.48992e-011 -6.69345e-026   
     length 0.391889   
     axis 4.27099e-014 90 90   XYZ
    dof rx
    limits (0.0 90.0)
  end
  begin
     id 23
     name lthumb
     direction 0.707107 -6.34926e-011 0.707107   
     length 0.562676   
     axis -90 45 2.85299e-015   XYZ
    dof rx rz
    limits (-45.0 45.0)
           (-45.0 45.0)
  end
  begin
     id 24 
     name rclavicle
     direction -0.882459 0.414895 -0.221648   
     length 3.44646  
     axis 0 0 0   XYZ 
    dof ry rz
    limits (-10.0 20.0)
           (-20.0 0.0)
  end
  begin
     id 25 
     name rhumerus
     direction -1 -4.48962e-011 -2.37984e-027  
     length 5.55576   
     axis 180 30 90   XYZ
    dof rx ry rz
    limits (-90.0 60.0)
           (-90.0 90.0)
           (-90.0 90.0)
  end
  begin
     id 26 
     name rradius
     direction -1 -4.48982e-011 -6.86791e-027   
     length 3.32774   
     axis 180 30 90   XYZ
    dof rx
    limits (-10.0 170.0)
  end
  begin
     id 27 
     name rwrist
     direction -1 -4.48961e-011 -1.67336e-026   
     length 1.66387   
     axis 9.90442e-015 -90 -90   XYZ
    dof ry
    limits (-180.0 0.0)
  end
  begin
     id 28
     name rhand
     direction -1 -4.4897e-011 -3.34673e-026   
     length 0.507628   
     axis 2.1355e-014 -90 -90   XYZ
    dof rx rz
    limits (-90.0 90.0)
           (-45.0 45.0)
  end
  begin
     id 29
     name rfingers
     direction -1 -4.48854e-011 -6.69345e-026   
     length 0.409263   
     axis 4.27099e-014 -90 -90   XYZ
    dof rx
    limits (0.0 90.0)
  end
  begin
     id 30
     name rthumb
     direction -0.707107 -6.34913e-011 0.707107   
     length 0.587622   
     axis -90 -45 -2.85299e-015   XYZ
    dof rx rz
    limits (-45.0 45.0)
           (-45.0 45.0)
  end
:hierarchy
  begin
    root lhipjoint rhipjoint lowerback
    lhipjoint lfemur
    lfemur ltibia
    ltibia lfoot
    lfoot ltoes
    rhipjoint rfemur
    rfemur rtibia
    rtibia rfoot
    rfoot rtoes
    lowerback upperback
    upperback thorax
    thorax lowerneck lclavicle rclavicle
    lowerneck upperneck
    upperneck head
    lclavicle lhumerus
    lhumerus lradius
    lradius lwrist
    lwrist lhand lthumb
    lhand lfingers
    rclavicle rhumerus
    rhumerus rradius
    rradius rwrist
    rwrist rhand rthumb
    rhand rfingers
  end

#!OML:ASF E:\motion texture\Top Level 1\Subject 1\Session 1\male.ASF
:FULLY-SPECIFIED
:DEGREES
33
root 28.496 17.2261 6.30049 259.469 -87.8635 -252.435
lowerback -0.944289 -2.93603 -3.05415
upperback -3.06192 -3.93734 3.00799
thorax -2.20873 -1.89178 4.84437
lowerneck -11.9542 -2.92514 -6.83735
upperneck 13.6015 -4.50981 10.3525
head 6.48961 -1.77687 4.03743
rclavicle -5.08143e-015 -1.82882e-014
rhumerus -9.18059 0.775995 -75.8578
rradius 63.8326
rwrist -5.19732
rhand -15.2003 -27.7541
rfingers 7.12502
rthumb 10.9716 -57.4474
lclavicle -5.08143e-015 -1.82882e-014
lhumerus 2.75245 1.40067 87.4686
lradius 27.26
lwrist -21.7078
lhand -13.6981 18.1199
lfingers 7.12502
lthumb 12.4202 47.7309
rfemur -36.5658 -2.88656 14.685
rtibia 18.1994
rfoot -4.65978 -15.6899
rtoes -1.21913
lfemur 5.64091 -4.13275 -24.5145
ltibia 15.7878
lfoot -18.1155 -0.782002
ltoes -10.0299
34
root 28.3296 17.2282 6.27717 265.669 -88.132 -258.675
lowerback -0.827322 -3.07892 -2.74833
upperback -2.99162 -4.12709 3.16903
thorax -2.19055 -1.99401 4.84338
lowerneck -12.2219 -2.91992 -6.80267
upperneck 13.5964 -4.4722 10.2474
head 6.52821 -1.75547 3.99936
rclavicle -1.51573e-014 -1.74931e-014
rhumerus -10.3331 1.05552 -76.0741
rradius 63.6292
rwrist -4.87098
rhand -15.511 -27.6065
rfingers 7.12502
rthumb 10.6719 -57.3155
lclavicle -1.51573e-014 -1.74931e-014
lhumerus 1.40363 1.03278 87.3497
lradius 26.3068
lwrist -24.4677
lhand -13.4948 17.662
lfingers 7.12502
lthumb 12.6162 47.2611
rfemur -36.5921 -2.55258 14.8251
rtibia 19.0728
rfoot -3.4318 -15.3827
rtoes -0.733804
lfemur 5.95468 -4.51492 -24.2667
ltibia 16.3326
lfoot -17.929 -0.802371
ltoes -11.4722
35
root 28.1604 17.236 6.25366 272.469 -88.4943 -265.497
lowerback -0.726254 -3.21309 -2.31758
upperback -2.92071 -4.30441 3.37196
thorax -2.17074 -2.09286 4.81524
lowerneck -12.5158 -2.91097 -6.75067
upperneck 13.6059 -4.42936 10.1228
head 6.57474 -1.73137 3.9526
rclavicle -4.35835e-014 6.36111e-015
rhumerus -11.5086 1.34561 -76.2942
rradius 63.383
rwrist -4.67204
rhand -15.8246 -27.5168
rfingers 7.12502
rthumb 10.3693 -57.2412
lclavicle -4.35835e-014 6.36111e-015
lhumerus -0.0863987 0.717238 87.2906
lradius 25.5037
lwrist -27.0792
lhand -13.3598 17.1943
lfingers 7.12502
lthumb 12.7463 46.7852
rfemur -36.605 -2.14921 15.0839
rtibia 19.8689
rfoot -2.23898 -15.1181
rtoes -0.386734
lfemur 6.2189 -4.89064 -23.8764
ltibia 16.928
lfoot -17.6567 -0.794453
ltoes -13.0242
36
root 27.9876 17.2494 6.2304 281.372 -88.9144 -274.407
lowerback -0.649983 -3.33097 -1.7941
upperback -2.84767 -4.45969 3.60184
thorax -2.14316 -2.18299 4.7619
lowerneck -12.8272 -2.90136 -6.67772
upperneck 13.6215 -4.386 9.97822
head 6.62532 -1.70713 3.89589
rclavicle -1.59028e-014 -2.3059e-014
rhumerus -12.709 1.61637 -76.5128
rradius 63.091
rwrist -4.54629
rhand -16.0178 -27.4274
rfingers 7.12502
rthumb 10.183 -57.1609
lclavicle -1.59028e-014 -2.3059e-014
lhumerus -1.70919 0.463114 87.2959
lradius 24.832
lwrist -29.4837
lhand -13.2781 16.7543
lfingers 7.12502
lthumb 12.8251 46.3403
rfemur -36.6056 -1.77087 15.4788
rtibia 20.6428
rfoot -1.16327 -14.8432
rtoes -0.0812231
lfemur 6.43208 -5.23407 -23.3852
ltibia 17.584
lfoot -17.3002 -0.784165
ltoes -14.5934
37
root 27.8109 17.2679 6.20753 296.14 -89.3096 -289.168
lowerback -0.613966 -3.4335 -1.2547
upperback -2.76609 -4.59528 3.83529
thorax -2.08868 -2.26422 4.70065
lowerneck -13.1629 -2.89271 -6.61014
upperneck 13.6474 -4.34399 9.8405
head 6.68384 -1.68278 3.8423
rclavicle 1.87355e-014 7.95139e-015
rhumerus -13.9258 1.8438 -76.7286
rradius 62.7535
rwrist -4.40925
rhand -16.0632 -27.2734
rfingers 7.12502
rthumb 10.1392 -57.0091
lclavicle 1.87355e-014 7.95139e-015
lhumerus -3.4437 0.308667 87.362
lradius 24.2642
lwrist -31.6521
lhand -13.3308 16.3113
lfingers 7.12502
lthumb 12.7743 45.9005
rfemur -36.5798 -1.479 15.9549
rtibia 21.4223
rfoot -0.259956 -14.5111
rtoes 0.441201
lfemur 6.59203 -5.53398 -22.8845
ltibia 18.3107
lfoot -16.8567 -0.78898
ltoes -16.14
38
root 27.6304 17.2905 6.18445 326.955 -89.5837 -319.958
lowerback -0.609338 -3.51825 -0.767958
upperback -2.68816 -4.7089 4.05719
thorax -2.02067 -2.33345 4.65515
lowerneck -13.5023 -2.89018 -6.5349
upperneck 13.6833 -4.31157 9.69452
head 6.74675 -1.66343 3.78389
rclavicle 1.14798e-014 -2.78299e-014
rhumerus -15.1823 2.00041 -76.9296
rradius 62.3961
rwrist -4.20125
rhand -15.9389 -27.0237
rfingers 7.12502
rthumb 10.2591 -56.7535
lclavicle 1.14798e-014 -2.78299e-014
lhumerus -5.28528 0.255058 87.4932
lradius 23.7821
lwrist -33.5487
lhand -13.3177 15.9826
lfingers 7.12502
lthumb 12.7869 45.571
rfemur -36.5122 -1.27301 16.4373
rtibia 22.1784
rfoot 0.488403 -14.1001
rtoes 1.32698
lfemur 6.67602 -5.77995 -22.4231
ltibia 19.1297
lfoot -16.3237 -0.849237
ltoes -17.6135
